{"title":"Susannah of the Mounties  (Western Drama 1939)  Randolph Scott, ","uid":9406140,"size":489945609,"categoryP":"video","categoryS":"movies","magnet":"?xt=urn:btih:0b0f4538de3dcf315d44e407edbe54b0f2703971&amp;dn=Susannah+of+the+Mounties++%28Western+Drama+1939%29++Randolph+Scott%2C+&amp;tr=udp%3A%2F%2Ftracker.openbittorrent.com%3A80&amp;tr=udp%3A%2F%2Fopen.demonii.com%3A1337&amp;tr=udp%3A%2F%2Ftracker.coppersurfer.tk%3A6969&amp;tr=udp%3A%2F%2Fexodus.desync.com%3A6969","seeders":1,"leechers":1,"uploader":"BurtonW","files":1,"time":1388163526,"description":" &lt;a href=&quot;http://www.imdb.com/title/tt0031995/?ref_=fn_al_tt_1&quot; rel=&quot;nofollow&quot; target=&quot;_NEW&quot;&gt;http://www.imdb.com/title/tt0031995/?ref_=fn_al_tt_1&lt;/a&gt;\n\n\nA very good quality film.\n\n\nEnglish subtitles!\n\n\nStoryline:\n\nShirley is the orphaned survivor of an Indian attack in the Canadian West. A Mountie and his girlfriend take her in. Everybody suffers further Indian attacks and the Mountie is saved from the stake only by Shirley's intervention with the Indian chief.\n\n\nTechnical Info:\n\n\nGeneral:\n\nComplete name                  : Susannah of the Mounties  (Western Drama 1939)  Randolph Scott, Shirley Temple &amp; Margaret Lockwood.mp4\n\nFormat                         : MPEG-4\nFormat profile                 : Base Media / Version 2\nCodec ID                       : mp42\nFile size                      : 467 MiB\nDuration                       : 1h 19mn\nOverall bit rate mode          : Variable\nOverall bit rate               : 826 Kbps\nEncoded date                   : UTC 2013-12-24 06:13:38\nTagged date                    : UTC 2013-12-24 09:10:49\n\n\nVideo:\n\nID                             : 1\nFormat                         : AVC\nFormat/Info                    : Advanced Video Codec\nFormat profile                 : &lt;a class=&quot;__cf_email__&quot; href=&quot;/cdn-cgi/l/email-protection&quot; data-cfemail=&quot;6b260a02052b275f455b&quot;&gt;[email&amp;#160;protected]&lt;/a&gt;&lt;script cf-hash='f9e31' type=&quot;text/javascript&quot;&gt;\n/* &lt;![CDATA[ */!function(){try{var t=&quot;currentScript&quot;in document?document.currentScript:function(){for(var t=document.getElementsByTagName(&quot;script&quot;),e=t.length;e--;)if(t[e].getAttribute(&quot;cf-hash&quot;))return t[e]}();if(t&amp;&amp;t.previousSibling){var e,r,n,i,c=t.previousSibling,a=c.getAttribute(&quot;data-cfemail&quot;);if(a){for(e=&quot;&quot;,r=parseInt(a.substr(0,2),16),n=2;a.length-n;n+=2)i=parseInt(a.substr(n,2),16)^r,e+=String.fromCharCode(i);e=document.createTextNode(e),c.parentNode.replaceChild(e,c)}}}catch(u){}}();/* ]]&gt; */&lt;/script&gt;\nFormat settings, CABAC         : Yes\nFormat settings, ReFrames      : 8 frames\nCodec ID                       : avc1\nCodec ID/Info                  : Advanced Video Coding\nDuration                       : 1h 19mn\nBit rate mode                  : Variable\nBit rate                       : 656 Kbps\nWidth                          : 720 pixels\nHeight                         : 544 pixels\nDisplay aspect ratio           : 4:3\nFrame rate mode                : Variable\nFrame rate                     : 23.976 fps\nMinimum frame rate             : 19.965 fps\nMaximum frame rate             : 29.970 fps\nColor space                    : YUV\nChroma subsampling             : 4:2:0\nBit depth                      : 8 bits\nScan type                      : Progressive\nBits/(Pixel*Frame)             : 0.070\nStream size                    : 371 MiB (79%)\nWriting library                : x264 core 130 r2273 b3065e6\nEncoding settings              : Deleted\nEncoded date                   : UTC 2013-12-24 06:13:38\nTagged date                    : UTC 2013-12-24 09:10:49\nColor primaries                : BT.601 NTSC\nTransfer characteristics       : BT.709\nMatrix coefficients            : BT.601\n\nAudio:\n\nID                             : 2\nFormat                         : AAC\nFormat/Info                    : Advanced Audio Codec\nFormat profile                 : LC\nCodec ID                       : 40\nDuration                       : 1h 19mn\nBit rate mode                  : Variable\nBit rate                       : 160 Kbps\nMaximum bit rate               : 217 Kbps\nChannel(s)                     : 2 channels\nChannel positions              : Front: L R\nSampling rate                  : 48.0 KHz\nCompression mode               : Lossy\nDelay relative to video        : 83ms\nStream size                    : 90.5 MiB (19%)\nLanguage                       : English\nEncoded date                   : UTC 2013-12-24 06:13:38\nTagged date                    : UTC 2013-12-24 09:10:48\n\nText:\n\nID                             : 3\nFormat                         : mp4s\nCodec ID                       : E0\nDuration                       : 1h 18mn\nBit rate mode                  : Variable\nBit rate                       : 3 560 bps\nMaximum bit rate               : 4 091 Mbps\nDelay relative to video        : 83ms\nStream size                    : 2.00 MiB (0%)\nLanguage                       : English\nEncoded date                   : UTC 2013-12-24 06:13:38\nTagged date                    : UTC 2013-12-24 09:10:48\n\n","torrent":{"xt":"urn:btih:0b0f4538de3dcf315d44e407edbe54b0f2703971","amp;dn":"Susannah+of+the+Mounties++%28Western+Drama+1939%29++Randolph+Scott%2C+","amp;tr":["udp%3A%2F%2Ftracker.openbittorrent.com%3A80","udp%3A%2F%2Fopen.demonii.com%3A1337","udp%3A%2F%2Ftracker.coppersurfer.tk%3A6969","udp%3A%2F%2Fexodus.desync.com%3A6969"],"infoHash":"0b0f4538de3dcf315d44e407edbe54b0f2703971","infoHashBuffer":{"type":"Buffer","data":[11,15,69,56,222,61,207,49,93,68,228,7,237,190,84,176,242,112,57,113]},"announce":[],"urlList":[]}}